<?xml version="1.0" encoding="UTF-8" standalone="no"?>
<svg
   xmlns:dc="http://purl.org/dc/elements/1.1/"
   xmlns:cc="http://creativecommons.org/ns#"
   xmlns:rdf="http://www.w3.org/1999/02/22-rdf-syntax-ns#"
   xmlns:svg="http://www.w3.org/2000/svg"
   xmlns="http://www.w3.org/2000/svg"
   xmlns:sodipodi="http://sodipodi.sourceforge.net/DTD/sodipodi-0.dtd"
   xmlns:inkscape="http://www.inkscape.org/namespaces/inkscape"
   width="200"
   height="200"
   version="1.1"
   viewBox="0 0 52.917 52.917"
   id="svg4090"
   sodipodi:docname="logo_en.svg"
   inkscape:version="1.0.2 (e86c870879, 2021-01-15)">
  <defs
     id="defs4094" />
  <sodipodi:namedview
     pagecolor="#ffffff"
     bordercolor="#666666"
     borderopacity="1"
     objecttolerance="10"
     gridtolerance="10"
     guidetolerance="10"
     inkscape:pageopacity="0"
     inkscape:pageshadow="2"
     inkscape:window-width="1440"
     inkscape:window-height="856"
     id="namedview4092"
     showgrid="false"
     inkscape:zoom="1.58"
     inkscape:cx="100"
     inkscape:cy="100"
     inkscape:window-x="0"
     inkscape:window-y="0"
     inkscape:window-maximized="1"
     inkscape:current-layer="svg4090" />
  <metadata
     id="metadata4075">
    <rdf:RDF>
      <cc:Work
         rdf:about="">
        <dc:format>image/svg+xml</dc:format>
        <dc:type
           rdf:resource="http://purl.org/dc/dcmitype/StillImage" />
        <dc:title />
      </cc:Work>
    </rdf:RDF>
  </metadata>
  <g
     transform="translate(-24.2,-24.2)"
     id="g4088">
    <circle
       cx="50.658"
       cy="50.658"
       r="25"
       fill="#ffffff"
       stroke="#f47920"
       stroke-width="1.6"
       id="circle4077" />
    <path
       d="m49.314 59.143 6.8525-1.5451c.94315-.17891 3.8113-.34414 4.5407-1.4278.35002-.41918.73912-.95465 1.1635-1.2345.78972-.47764.87375-1.008 1.139-1.5007.58039-1.3931 1.1198-2.8757 1.2823-3.7001.2304-.58256.08485-.7538.03077-1.0443-.09009-.60609.05248-1.1425.33656-1.6015l2.2551-4.1882c.3746-.45577.75018-1.1531 1.4863-1.4483.42741-.21274 1.0027-.35645 1.6747-.62717.34908-.08288.95292.06178.99199-.29798l-1.4235-.20163c-.37836-.1083-1.0999-.36841-.39786-1.1432.22695-.24138.3138-.44015.34107-.6809l.01335-.65956-1.9118 2.1489-1.2268.97413c-.28888.28332-.41767.55047-.49464.8128-.10887.37102-.24599.40593-.45913.54776-.0877-.5066-.02569-1.103-.01997-1.6739l.39951-2.8094.74234-1.9196-.0041-.81848-1.1166 2.2816-.53377 1.9921c-.43236 1.1826-.505 2.0509-.57554 2.8525-.01232.14006.0406.2695-.08661.43948-.12459-.18488-.11659-.19581-.28507-.73829-.02289-1.0933-.33941-.57485.01162-3.7209.12506-1.1054.54531-1.2031.34241-3.4282l.01442-1.1016c-.09234-.54619-.18742-1.0928-.55967-1.6844-.28796.36994-.35022 1.1647-.42151 1.9424l-.66612 2.486c-.17731.66172-.05308 1.4916-.24156 2.0423-.12827.37478-.10205.53363-.26631.67755-.45717-.37844-.63901-.95779-.92254-1.4657l-.5383-1.7904c-.24551-3.1663-1.0145-2.8373-.9555-3.0084-.28278.56466-.1483 1.6552-.19879 2.5126-.43133.17005-.77864-.67267-1.0026-1.1216l-.83536-1.6747c-.000984.76553-.04099 1.6683.21723 2.3849 0 0 .62634 1.3361 1.0003 1.9708.32102.42323.60865.82143.51269 1.2107-.04436.20207-.30237.17507-.44204.06822-.61783-.5436-1.215-.72033-1.4557-.96526l-1.6858-1.7303 1.8197 2.2007.86229 1.3212c-.47066-.0213-1.1144-.08586-1.4893-.36734l-1.2065-.90574c-.83006-1.0103-1.0854-.96789-1.4384-1.1351.03539.57401.74547 1.0805 1.2873 1.6472l1.646 1.8623c-.01233.02434 1.2509 1.3257 1.8243 1.8793.44724.29302.46535.57435.68631.94823.22881.30494.43651.66301.67937.95688.16677.20178.49761.53046.75215.98569.2967.53064.50257 1.0247.83292 1.6254.15863.28843.13979.3858.14027.60407.0013.58411.47245.93296.4509 1.5344 0 0 .0046.66997-.04706.89936-.21367.9493-.77809 2.585-.80363 2.6514-.37379.97115-1.0446 1.498-1.6433 1.9939l-1.6939 1.416c-.83883.50282-1.3407.46128-2.0081.68716l-6.2775 1.3687c-.45034-.54131-.80274-1.1332-1.375-1.5805-2.1068-1.2943-2.4015-3.0585-2.6526-3.6825l-.25096-1.7751-.0081-1.9171-.36073.52306c-.27522.36229-.38086.08381-.51276-.09545l-.39616-.70396c-.27539.65587-.30934.92362-.15033 1.1216.99756 1.5874.34001 1.7649.2128 2.815-.01899.29362-.22175.15251-.35684.16083-.50404-.32367-.82714-.6596-1.1001-.93155-.10174-.10135-.19356-.32714-.28795-.4925-.25561-.4478-.26187-.86549-.28606-1.0179 0 0 .04048-.32766.04721-.46334.01418-.28588-.02534-.7982-.02534-.7982-.06995-.01949-.13104-.06639-.23207.01029-.11488.42677-.0051.93745-.24901 1.1995l-.21158-.0175c-.08126-.43377-.28829-.43556-.48329-.61206.0964.27856.07432.35306.50121 1.1003.11113.4379.2822.83924.42234 1.2364l-.1638.001c-1.7243-.88612-1.4704-1.0819-1.9-1.5315l-.01236.74945c.12628.3085.78446 1.0806.84607 1.125.39706.28656.9473.72141 1.4703.88304.3321.10262.64602.30438 1.2065.61526.457.2535.79793.35654.89814.42084.75399.49097.26054.67786.10542.70452l-.46033-.0065c-.34438-.18836-.69594-.35114-.96379-.374l.0328.32903 4.6117 3.8154-3.91-.19594c-.58081-.22086-1.4195-.97798-2.067-1.5357l-1.9514-3.0405-.44442 1.4074-1.1174-1.3137c-.0747.06619-.1356.15378-.15689.30285-.0427.49977-.02724.93951.0918 1.4192-.4266.03628-.56756-.12006-1.0266-.10117l.61591 1.0999c.11893.232.14514.38118.16786.47219-.10217.07392-.21148.10132-.3643.2203-.26908.20951-.50937.71025-.6551 1.0262.30704.22852.80661.13257.87504.42791l-.48386.41648.88124.25915c.22142.10762.1525.17492.08975.2384l-.90746.53187c.0032.15764.21791.64497 1.2286.19945l2.1287-.93836 1.8072-.06642z"
       fill="#cd2127"
       id="path4079" />
    <path
       d="m72.35 61.851c-4.0922 8.5684-12.372 13.226-21.832 13.064-.49824-.72002-.92186-1.8645-1.8937-3.2148-.22018-.0944-1.0573-1.1964-1.1492-2.7225-.10788-.31264-.30548-.4637-.47762-.56904-.41449-.23963-1.7122-.04606-2.541-.19029-.45886-.09865-.81191-.46017-1.2601-.60519l-.65874-.0038c-.69437.20464-1.3203 1.1641-2.2409 1.1487-1.0078-.01333-1.1504-.97287-2.4651-2.1808-.28932-.2492-.1903-1.0053.02828-1.4143.96613-1.0848 4.0016-2.4674 5.6573-3.658.489-.13311.73718-.33747 1.1956-.6216.79918-.33101 1.8059-.56327 2.0744-1.1002.02977-.05047-.03875-.186-.12146-.20423-.51193-.11281-2.93-.01162-4.2757-.25297l-.61158.01969c-.82419.10578-1.0828.74147-2.9726 1.2484-.3823.01461-.70967-.90581-.86271-1.4726.09311-.40256.52596-.54855.5627-.7571-.0073-.21734-.941-1.1562-.90966-1.3824-.02976-.09644.70694-.24431.73557-.35788-.10554-.17114-.65606-.70786-.45406-.96412.19634-.10838.22876.13808.5241.07912.17088-.01959.32766.03438.41451-.22227l-.02066-.77933c-.03042-.20191.4301.23964.73243.47859.0489.03865.08828.02368.15524.02208.26312.0036.27851-.58779.33825-.8193.68156.82907 1.3884 1.7699 2.1317 3.1321.49053.3117.51457.54563 2.0898.78483l2.9166-.027c.14106-.04165.26614-.11827-.03851-.25957-.63289-.18692-3.9836-2.3586-7.6788-5.1042-1.1234-.83468-2.3793-1.5978-3.3672-2.5307l.80909.0029-.46596-.84381-.000813-.25867c.01374-.16985.38864-.11534.33682-.22373-.08543-.36828-.23605-.78219-.16882-1.1264.06053-.14596.12869-.11634.20006-.0131.78554 1.5623.63761 2.0291.72158 2.2359.18368.59369.84446 1.075 1.208 1.5294.26645.14345.3949.03417.56395-.1782.07727-.38375-.14806-.85551-.4434-1.2361-.67558-.81272-.81388-1.428-1.1652-2.1086-.18315-.35484-.38098-.74282-.51339-1.2082-.04697-.23291-.02474-.3403-.03687-.51002.95046.88702 2.2936 3.4554 2.4122 3.6657.0542.27616.04505.3783.14234.62688.49439.72526.7735.73654 1.4038 1.9691 1.023.90969 2.0137 1.4855 2.8648 2.0642 2.3506 1.0636 3.6071 1.7921 3.7472 1.9969.09364.04482.50598.37845.91918.36995 2.1179-.04373 4.8754-.62617 4.8756-.61414.66057-.17753 1.0132-.19474 1.815-.68874.75202-.6844.84061-2.2304 1.1652-2.6412.32404-.66009.46492-1.3351.45872-2.1324.01519-.62025.20116-1.2353.02279-2.4165l-.01418-2.2736c-.04529-.35656-.30717-1.4372-.83947-2.2594-.10847-.16755-.24139-.49932-.29269-.81121-.10838-.65899-.46379-1.2296-.94394-1.9322-1.2915-1.6176-2.6225-3.1919-4.0717-4.6746-.8186-.93539-1.2209-2.2179-1.1992-2.474.03157-1.2054.46724-1.1327.8327-.12278.14851.1991.39331-.16245.65183-.4579.07492.2054.32211.81652.4048 1.1824.09319.41229.6487.66557.81446.65473.45014-.02944.80109-.17654 1.2958-.70801.02972-.03193.07815-.15839.08735-.21152.0027-.42136.12308-.80517.29119.0794.03215.16918.0038.75734.000669.89056l.51826 1.6903c.47468.71168.89477 1.8103 1.7501.60515l.07449-2.4213c.08252-.40062.28764-.31193.28514-1.2557-.02627-.52456-.15689-.40658-.31587-1.6232l.0207-.66862.25304-.0012c.2774.37442.46638.95814.87365 1.1297.49492-.03011 1.3883-1.204 2.0165-1.1947l.25003.0037-.17062.54305c-.26378.54891-.64246 1.0236-.99327 1.4508l-.36011.74995-.41364.77121v1.5605l-.46506 2.3356-.03289.93066.61531 1.4539c.18183.39416.38312.15162.47472.04296l.90076-1.2848c.56173-1.2683 1.1515-2.4858 1.7712-3.6491l.37729-.26876.02183.82477-.10441.15647.0086.17973c-.0055.40647-.16872 1.5094-.43287 1.916-.33358.51341-.61607.8314-1.1373 1.5714-.26489.51911-.45283.97021-.89761 1.445-.06907.07374-.17729.20915-.2087.24612-.2058.24226-.08982.29296-.04416.36716l.37213.26453c.18781.11016.35499.09848.5178.04067l1.8217-1.5904c.54793-.39699 1.0764-.88551 1.6569-1.2147.55817-.3273 1.5285-1.0055 2.1948-1.1203l.55767.01663c-.55514.47788-1.0941.95734-1.7272 1.4276-.47472.49303-1.0455.90622-1.6356 1.3034-.67857.69556-1.3247 1.292-1.8622 1.5565l-.33949.28377c-.49091.49426-1.1175 1.0243.46244.97319 1.4481-.34576 1.2045-.27629 2.0571-.60431.44866-.17261 1.0695-.49966 1.9678-.55253.47311-.02784 1.9861.18857 2.7311.37402.4077.13609.83974.2608 1.1663.43485-2.6299-.15478-4.907-.13526-7.1797.70843l-1.3404.68321c-1.4631.68355-1.3796 1.6344-1.5022 2.5354l-.07906.98052c-.06696.83042.01732 2.0134-.2921 2.8861-.22899.64586-.19441 1.3456-.49382 2.144-.20096.61195-.74625 1.2654-1.239 1.7111-.64972.58779-.83557.97569-2.7708 1.3764-.98429.34725-1.8579.29803-2.7868.42497-.93421.11251-1.5819.48813-1.5632 1.7514l.21137.000637c1.0139-.47707 1.7499-.40597 2.6907-.13437.53364.15006 1.0463.34088 1.6252.40286l3.5309.29531c.53927.05073.88564.55386 1.6946.59307l1.8431.0808c.61276.16264 1.4199.2034 2.0153-.02784s2.5146-1.1082 2.5146-1.1082c.35945-.17461.74479-.29014 1.1996-.2471l.5218.01977c.91138.06627 1.6689.25197 2.3306.55204.86391.31958 1.9311 1.0422 2.8778 1.4656z"
       fill="#f47920"
       id="path4081" />
    <path
       id="a"
       d="m55.292 31.256a19.948 19.948 0 0114.768 24.036 19.948 19.948 0 01-24.036 14.768 19.948 19.948 0 01-14.768-24.036 19.948 19.948 0 0124.036-14.768z"
       fill="none" />
    <g
       aria-label="CARIBOU CONTESTS"
       transform="translate(.0037575 .0059029)"
       id="text4086"
       style="font-size:4.9389px;letter-spacing:-0.2249px;word-spacing:0.39688px;fill:#cd2127;stroke-width:0.353">
      <path
         d="m 28.9952,58.663769 q -0.08464,-0.216148 -0.134284,-0.451302 -0.05605,-0.237952 -0.05308,-0.392929 -0.0024,-0.04679 0.01698,-0.06499 0.01299,-0.021 0.06178,-0.04541 l 0.615837,-0.310095 q 0.0138,-0.0054 0.0274,0.01579 0.0136,0.02119 -0.0012,0.0376 -0.326688,0.276434 -0.4308,0.59301 -0.10871,0.318378 0.02275,0.654098 0.122453,0.312725 0.389855,0.494436 0.261003,0.178914 0.629552,0.199026 0.366749,0.01551 0.785249,-0.148359 0.423099,-0.165673 0.689198,-0.434294 0.259699,-0.271419 0.335413,-0.592789 0.06931,-0.324167 -0.06034,-0.655288 -0.124254,-0.317324 -0.379051,-0.466843 -0.259395,-0.147719 -0.730534,-0.186005 -0.0156,8.04e-4 -0.02,-0.02399 -0.0044,-0.0248 0.0094,-0.0302 l 0.597275,-0.154315 q 0.05879,-0.01241 0.08079,-0.01042 0.0174,0.0038 0.052,0.03798 0.317436,0.363672 0.48671,0.795969 0.192685,0.492083 0.161796,0.955021 -0.03729,0.46014 -0.28657,0.812345 -0.249282,0.352205 -0.67698,0.519678 -0.436895,0.171075 -0.865453,0.07899 -0.434957,-0.09489 -0.782979,-0.414758 -0.349822,-0.324472 -0.540706,-0.811955 z"
         style="font-weight:bold;font-size:4.9389px;font-family:'Cormorant Garamond';text-align:end;text-anchor:end;fill:#cd2127;stroke-width:0.353"
         id="path4657" />
      <path
         d="m 30.08432,55.928472 -0.298446,-1.390742 0.127957,-0.06282 0.321244,1.496978 z m 0.632836,-2.818066 q -0.0052,-0.02414 0.02379,-0.03036 0.02897,-0.0062 0.03416,0.01793 0.02073,0.09658 0.05459,0.301468 0.03594,0.214547 0.05563,0.306297 0.02591,0.120725 0.07287,0.292495 0.04489,0.162112 0.06562,0.258691 0.0041,0.01932 -0.02483,0.02553 -0.02897,0.0062 -0.03312,-0.0131 -0.02694,-0.125553 -0.06249,-0.17349 -0.04141,-0.05173 -0.109014,-0.03722 -0.08209,0.01762 -0.254526,0.155647 l -1.726051,1.395823 -0.466068,-0.1475 2.326132,0.506041 q 0.153512,0.03272 0.274236,0.0068 0.173842,-0.03731 0.244515,-0.178755 0.06964,-0.146278 0.02508,-0.353924 -0.0052,-0.02414 0.02379,-0.03036 0.02897,-0.0062 0.03415,0.01793 0.01865,0.08692 0.04423,0.253178 0.02972,0.185574 0.05874,0.320785 0.02798,0.130382 0.07702,0.31181 0.04489,0.162112 0.06665,0.26352 0.0041,0.01932 -0.02483,0.02553 -0.02897,0.0062 -0.03312,-0.0131 -0.02902,-0.135211 -0.101823,-0.215562 -0.07764,-0.07932 -0.237366,-0.141014 -0.164558,-0.06066 -0.471581,-0.126111 l -2.528286,-0.553584 q -0.01656,-0.0065 -0.02381,-0.04035 -0.0083,-0.03863 0.0052,-0.04657 L 30.22338,53.75181 q 0.306587,-0.242589 0.413135,-0.381634 0.106548,-0.139046 0.08064,-0.25977 z"
         style="font-weight:bold;font-size:4.9389px;font-family:'Cormorant Garamond';text-align:end;text-anchor:end;fill:#cd2127;stroke-width:0.353"
         id="path4659" />
      <path
         d="m 30.685617,50.702499 q 0.0053,0.113471 -0.389949,0.438428 -0.400168,0.325187 -1.115041,0.793585 l -0.159284,-0.447451 q 0.60255,-0.438444 0.940191,-0.726108 0.337411,-0.292597 0.485402,-0.512095 0.14799,-0.219497 0.138567,-0.421773 -4.6e-4,-0.0099 0.02914,-0.01125 0.0296,-0.0014 0.03006,0.0085 z m -3.048854,1.205052 q -0.02091,-0.448953 0.135333,-0.703445 0.151316,-0.254262 0.447329,-0.268053 0.281212,-0.0131 0.51574,0.139134 0.234298,0.147301 0.374522,0.39787 0.13529,0.250798 0.148391,0.532011 0.009,0.192408 0.0077,0.271575 l 1.090314,-0.0508 q 0.15294,-0.0071 0.220861,-0.03501 0.06792,-0.02789 0.08937,-0.0981 0.02122,-0.07515 0.01386,-0.233026 -4.59e-4,-0.0099 0.02914,-0.01125 0.0296,-0.0014 0.03006,0.0085 0.0076,0.162807 0.007,0.256775 l 0.01253,0.375179 0.02171,0.359919 q 0.0095,0.09844 0.01734,0.266182 6.89e-4,0.0148 -0.02891,0.01618 -0.0296,0.0014 -0.03029,-0.01342 -0.0074,-0.157873 -0.03524,-0.225794 -0.02811,-0.07285 -0.09833,-0.0943 -0.07538,-0.02615 -0.223389,-0.01926 l -2.284233,0.106415 q -0.148007,0.0069 -0.215927,0.03478 -0.06792,0.02789 -0.08914,0.103038 -0.02615,0.07538 -0.01903,0.228322 4.6e-4,0.0099 -0.02914,0.01125 -0.0296,0.0014 -0.03006,-0.0085 l -0.0072,-0.261708 q -7.06e-4,-0.227403 -0.0069,-0.360609 -0.0078,-0.16774 -0.03112,-0.349592 -0.0079,-0.06391 -0.01722,-0.157414 -0.0095,-0.09844 -0.01505,-0.216846 z m 0.796338,-0.417807 q -0.404551,0.01885 -0.551975,0.144377 -0.147424,0.12553 -0.137081,0.34754 0.0092,0.197342 0.0871,0.277765 0.07791,0.08042 0.250585,0.07238 l 1.045912,-0.04873 q 0.01422,-0.119324 0.0064,-0.287065 -0.01333,-0.286146 -0.17695,-0.40213 -0.168783,-0.120687 -0.523999,-0.104139 z"
         style="font-weight:bold;font-size:4.9389px;font-family:'Cormorant Garamond';text-align:end;text-anchor:end;fill:#cd2127;stroke-width:0.353"
         id="path4661" />
      <path
         d="m 30.377498,48.949284 q 0.152714,0.01096 0.223448,-0.0087 0.07073,-0.01968 0.100314,-0.08688 0.02993,-0.07213 0.04124,-0.229766 0.0011,-0.01478 0.03062,-0.01266 0.02956,0.0021 0.0285,0.0169 -0.01166,0.162566 -0.02331,0.255811 l -0.03179,0.37404 -0.02123,0.364895 q -0.0021,0.09888 -0.01416,0.266371 -7.07e-4,0.0099 -0.03026,0.0077 -0.02956,-0.0021 -0.02885,-0.01197 0.01131,-0.157639 -0.008,-0.2333 -0.01933,-0.07566 -0.08653,-0.10524 -0.07177,-0.03486 -0.21956,-0.04546 l -2.280848,-0.16364 q -0.147788,-0.0106 -0.218876,0.01401 -0.07073,0.01968 -0.100667,0.09181 -0.03486,0.07177 -0.04617,0.229412 -7.06e-4,0.0099 -0.03026,0.0077 -0.02956,-0.0021 -0.02885,-0.01197 l 0.02401,-0.265663 q 0.02611,-0.2259 0.03601,-0.363835 0.01096,-0.152713 0.01736,-0.380027 l 0.0131,-0.251592 q 0.0011,-0.01478 0.03062,-0.01266 0.02956,0.0021 0.0285,0.0169 -0.01096,0.152714 0.0133,0.228728 0.02426,0.07601 0.09638,0.105947 0.0672,0.02958 0.214988,0.04018 z"
         style="font-weight:bold;font-size:4.9389px;font-family:'Cormorant Garamond';text-align:end;text-anchor:end;fill:#cd2127;stroke-width:0.353"
         id="path4663" />
      <path
         d="m 29.315251,46.781787 q 0.05792,-0.325799 0.208983,-0.554777 0.151929,-0.23384 0.365777,-0.336281 0.213849,-0.102442 0.456982,-0.05922 0.252858,0.04495 0.431156,0.227137 0.178299,0.182187 0.25405,0.461519 0.07089,0.278468 0.0147,0.594541 -0.0242,0.136154 -0.06991,0.308616 -0.01696,0.06721 -0.03998,0.168465 -0.02215,0.09639 -0.04376,0.217955 l -0.05824,0.355839 q -0.01243,0.09812 -0.04182,0.263448 -0.0026,0.01459 -0.03177,0.0094 -0.02918,-0.0052 -0.02658,-0.01978 0.02507,-0.141017 0.01372,-0.218279 -0.01621,-0.07813 -0.0791,-0.119405 -0.06689,-0.04701 -0.207906,-0.07207 l -2.251412,-0.400237 q -0.204232,-0.03631 -0.279549,0.02053 -0.08018,0.05597 -0.11735,0.26507 -0.0017,0.0097 -0.03091,0.0045 -0.02918,-0.0052 -0.02745,-0.01491 l 0.05068,-0.256856 q 0.04949,-0.221954 0.07283,-0.353245 0.0242,-0.136155 0.03555,-0.284628 0.0038,-0.04949 0.01621,-0.147609 0.01243,-0.09812 0.02539,-0.171057 0.07867,-0.442503 0.282355,-0.657109 0.20369,-0.214606 0.510038,-0.160146 0.282034,0.05014 0.461089,0.31272 0.175057,0.256855 0.184245,0.684877 z m -1.265696,-0.01934 q -0.02507,0.141017 0.0335,0.206609 0.0537,0.06473 0.233624,0.09671 l 0.953081,0.169431 -0.06602,0.173868 q 0.04776,-0.212228 0.07629,-0.372696 0.04495,-0.252859 -0.120488,-0.422726 -0.16544,-0.169868 -0.462062,-0.222599 -0.277172,-0.04927 -0.4398,0.04722 -0.167491,0.09563 -0.20812,0.324178 z m 2.861081,0.41331 q 0.113242,-0.637009 -0.548079,-0.754573 -0.374425,-0.06656 -0.625229,0.07446 -0.250805,0.141018 -0.315638,0.505718 -0.04236,0.23827 -0.0443,0.418513 l -0.02982,-0.170841 1.210802,0.215246 q 0.160468,0.02853 0.239783,-0.02258 0.07445,-0.05198 0.112488,-0.265934 z"
         style="font-weight:bold;font-size:4.9389px;font-family:'Cormorant Garamond';text-align:end;text-anchor:end;fill:#cd2127;stroke-width:0.353"
         id="path4665" />
      <path
         d="m 31.829517,44.247164 q -0.149454,0.434322 -0.467584,0.70614 -0.321193,0.26554 -0.731064,0.333425 -0.412935,0.06161 -0.823907,-0.07981 -0.481024,-0.165525 -0.738378,-0.525686 -0.262024,-0.361767 -0.304649,-0.799509 -0.04102,-0.442411 0.09558,-0.839373 0.152669,-0.443662 0.478532,-0.707596 0.321192,-0.26554 0.723179,-0.325691 0.403595,-0.06482 0.786546,0.06696 0.424982,0.14624 0.702775,0.492542 0.277792,0.346301 0.353108,0.795292 0.07692,0.44432 -0.07414,0.883313 z m -0.06372,-0.194291 q 0.08999,-0.261527 0.01126,-0.518438 -0.0818,-0.263189 -0.33117,-0.479578 -0.254043,-0.217997 -0.660345,-0.357809 -0.429652,-0.147847 -0.810899,-0.13279 -0.385917,0.01345 -0.662565,0.195078 -0.276649,0.181629 -0.390748,0.513209 -0.146241,0.424982 0.09725,0.764704 0.238824,0.338115 0.813251,0.535781 0.453003,0.155883 0.859208,0.14419 0.403141,-0.01797 0.685916,-0.187043 0.284381,-0.173745 0.388839,-0.477304 z"
         style="font-weight:bold;font-size:4.9389px;font-family:'Cormorant Garamond';text-align:end;text-anchor:end;fill:#cd2127;stroke-width:0.353"
         id="path4667" />
      <path
         d="m 31.546873,38.908461 q -0.233745,-0.128424 -0.427387,-0.09393 -0.191264,0.03016 -0.295906,0.22062 -0.0048,0.0087 -0.03073,-0.0056 -0.02597,-0.01427 -0.02122,-0.02293 l 0.118484,-0.205394 q 0.09903,-0.159731 0.153728,-0.259289 0.04519,-0.08224 0.122145,-0.242829 l 0.10507,-0.201494 q 0.0048,-0.0087 0.03073,0.0056 0.02597,0.01427 0.02122,0.02293 -0.09275,0.168815 -0.01089,0.337769 0.08187,0.168954 0.315611,0.297378 l 1.203351,0.661146 q 0.303002,0.166476 0.458693,0.426708 0.155691,0.260233 0.145661,0.575932 -0.01198,0.308992 -0.187968,0.629308 -0.175988,0.320317 -0.432748,0.500457 -0.256759,0.18014 -0.564657,0.196938 -0.309847,0.01009 -0.621506,-0.161141 L 30.23042,40.82247 q -0.129858,-0.07135 -0.204727,-0.07867 -0.07249,-0.01165 -0.129808,0.04139 -0.05927,0.04633 -0.132992,0.180518 -0.0071,0.01299 -0.03311,-0.0013 -0.02597,-0.01427 -0.01884,-0.02725 l 0.130374,-0.227037 q 0.118056,-0.19436 0.182268,-0.311232 0.07135,-0.129858 0.172087,-0.33373 l 0.116961,-0.223137 q 0.0071,-0.01299 0.03311,0.0013 0.02597,0.01427 0.01884,0.02726 -0.07372,0.134187 -0.08343,0.213385 -0.0073,0.07487 0.04334,0.136515 0.04871,0.05494 0.178567,0.126284 l 1.23798,0.680172 q 0.515104,0.283009 0.873611,0.215123 0.358506,-0.06789 0.563033,-0.440145 0.197393,-0.359274 0.09274,-0.681629 -0.108982,-0.324734 -0.51587,-0.548287 z"
         style="font-weight:bold;font-size:4.9389px;font-family:'Cormorant Garamond';text-align:end;text-anchor:end;fill:#cd2127;stroke-width:0.353"
         id="path4669" />
      <path
         d="m 33.729185,34.946488 q 0.154859,-0.172922 0.342446,-0.323165 0.187204,-0.157217 0.326906,-0.224375 0.04069,-0.02323 0.06568,-0.01411 0.0246,0.0021 0.06837,0.03471 l 0.554243,0.410158 q 0.01104,0.0099 -0.0018,0.03158 -0.01279,0.02169 -0.0341,0.01587 -0.393951,-0.167163 -0.72349,-0.117524 -0.333218,0.04634 -0.573744,0.314926 -0.224052,0.250185 -0.265845,0.570773 -0.04218,0.313613 0.105867,0.65172 0.15134,0.334427 0.486147,0.634261 0.338487,0.303129 0.698172,0.419715 0.359301,0.109612 0.680329,0.03246 0.320643,-0.08412 0.557874,-0.349027 0.227347,-0.253865 0.246076,-0.548698 0.01505,-0.298127 -0.162977,-0.736013 -0.0077,-0.01356 0.01241,-0.02867 0.02015,-0.0151 0.03119,-0.0052 l 0.406797,0.463753 q 0.03756,0.0469 0.04569,0.06743 0.0044,0.01724 -0.01049,0.06354 -0.181715,0.447218 -0.491434,0.793062 -0.352551,0.393675 -0.779784,0.574612 -0.427617,0.173963 -0.854353,0.110039 -0.426735,-0.06392 -0.768901,-0.370348 -0.349524,-0.313014 -0.460336,-0.737115 -0.111196,-0.431076 0.01764,-0.885872 0.132128,-0.458476 0.481385,-0.848471 z"
         style="font-weight:bold;font-size:4.9389px;font-family:'Cormorant Garamond';text-align:end;text-anchor:end;fill:#cd2127;stroke-width:0.353"
         id="path4671" />
      <path
         d="m 38.187757,35.163371 q -0.359224,0.286235 -0.773541,0.344823 -0.413532,0.05165 -0.795795,-0.111076 -0.381478,-0.169662 -0.652324,-0.509572 -0.317014,-0.39785 -0.340838,-0.839868 -0.0269,-0.44588 0.172092,-0.838099 0.202857,-0.395297 0.531179,-0.65691 0.366949,-0.292392 0.783559,-0.340176 0.413533,-0.05165 0.784992,0.113368 0.375322,0.161937 0.627702,0.478672 0.280081,0.351499 0.328588,0.792792 0.04851,0.441294 -0.128942,0.860552 -0.173586,0.41618 -0.536672,0.705494 z m 0.05052,-0.198134 q 0.216307,-0.172357 0.287772,-0.431384 0.07225,-0.265968 -0.02201,-0.582395 -0.09734,-0.320291 -0.365105,-0.656339 -0.283158,-0.355361 -0.612913,-0.547291 -0.332834,-0.195793 -0.663743,-0.191037 -0.330909,0.0048 -0.605155,0.223281 -0.351498,0.28008 -0.328398,0.697413 0.02002,0.413471 0.398592,0.888573 0.298547,0.374675 0.647554,0.58284 0.349792,0.201225 0.679132,0.21035 0.333202,0.006 0.584272,-0.194011 z"
         style="font-weight:bold;font-size:4.9389px;font-family:'Cormorant Garamond';text-align:end;text-anchor:end;fill:#cd2127;stroke-width:0.353"
         id="path4673" />
      <path
         d="m 38.647606,31.099909 0.134814,-0.06226 1.118347,2.051015 q 0.125311,0.229818 0.294003,0.312224 0.168691,0.08241 0.337803,-0.0098 0.0087,-0.0047 0.02286,0.02129 0.01419,0.02602 0.0055,0.03075 -0.121413,0.0662 -0.18882,0.09733 l -0.236519,0.12334 -0.266479,0.150927 q -0.07135,0.04453 -0.210108,0.12019 -0.01301,0.0071 -0.02719,-0.01892 -0.01419,-0.02602 -0.0012,-0.03311 0.190792,-0.104033 0.225902,-0.297563 0.03945,-0.195896 -0.08587,-0.425714 z m 3.67027,1.469597 q 0.0071,0.01301 -0.01222,0.02917 -0.01498,0.01379 -0.02838,0.0099 l -3.46415,-1.266965 q -0.246341,-0.0907 -0.390212,-0.09663 -0.14387,-0.0059 -0.25661,0.05554 -0.0087,0.0047 -0.02286,-0.02129 -0.01419,-0.02602 -0.0055,-0.03074 l 0.184484,-0.09497 q 0.05873,-0.0264 0.16714,-0.08551 l 0.327185,-0.184028 q 0.05834,-0.03744 0.145066,-0.08472 0.03469,-0.01891 0.06149,-0.01103 0.0268,0.0079 0.100901,0.04061 0.128095,0.05954 0.177363,0.07768 l 2.591508,0.966482 z m 0,0 -0.196681,-0.06152 -1.139626,-2.09004 q -0.127676,-0.234154 -0.296367,-0.31656 -0.168692,-0.0824 -0.337803,0.0098 -0.0087,0.0047 -0.02286,-0.02129 -0.01419,-0.02602 -0.0055,-0.03075 l 0.18882,-0.09733 q 0.143487,-0.06699 0.238883,-0.119003 0.08672,-0.04729 0.238097,-0.141077 l 0.192764,-0.110733 q 0.0087,-0.0047 0.02286,0.02129 0.01419,0.02602 0.0055,0.03075 -0.173447,0.09458 -0.197519,0.287713 -0.02644,0.188802 0.09887,0.41862 z"
         style="font-weight:bold;font-size:4.9389px;font-family:'Cormorant Garamond';text-align:end;text-anchor:end;fill:#cd2127;stroke-width:0.353"
         id="path4675" />
      <path
         d="m 42.556582,29.208897 q -0.553989,0.196269 -0.540424,1.003616 2.93e-4,0.01562 -0.02298,0.02386 -0.02493,0.0036 -0.02987,-0.01037 -0.04735,-0.192812 -0.127982,-0.494347 -0.08228,-0.30619 -0.135058,-0.455162 -0.0082,-0.02328 0.01503,-0.03152 0.02793,-0.0099 0.03618,0.01338 0.03628,0.102418 0.301641,0.0084 0.40531,-0.127875 0.940677,-0.317547 0.274667,-0.09731 0.578623,-0.215476 l 0.314916,-0.116809 q 0.176904,-0.06267 0.247799,-0.11399 0.07555,-0.05296 0.07409,-0.131041 -0.0019,-0.02027 0.02134,-0.02852 0.02793,-0.0099 0.03453,0.0087 0.03551,0.144609 0.125747,0.458461 0.09489,0.312202 0.160862,0.498417 0.0049,0.01397 -0.01833,0.02221 -0.02328,0.0082 -0.03288,-0.0041 -0.196828,-0.333723 -0.450373,-0.443005 -0.255193,-0.113938 -0.534515,-0.01498 -0.135006,0.04783 -0.160119,0.124843 -0.02211,0.07071 0.03562,0.233646 l 0.760337,2.146126 q 0.05113,0.144316 0.102151,0.199596 0.05102,0.05528 0.138411,0.05052 0.08739,-0.0048 0.259637,-0.06579 0.01397,-0.0049 0.02386,0.02298 0.0099,0.02793 -0.0041,0.03288 -0.167593,0.05938 -0.267005,0.08936 l -0.388045,0.132239 -0.375436,0.13825 q -0.09611,0.03929 -0.268362,0.100316 -0.01397,0.0049 -0.02386,-0.02298 -0.0099,-0.02793 0.0041,-0.03288 0.167593,-0.05938 0.238488,-0.11069 0.07555,-0.05297 0.08039,-0.128036 0.0078,-0.08138 -0.04163,-0.221037 L 42.86639,29.403039 q -0.05608,-0.158282 -0.117767,-0.199303 -0.06169,-0.04102 -0.192041,0.0052 z"
         style="font-weight:bold;font-size:4.9389px;font-family:'Cormorant Garamond';text-align:end;text-anchor:end;fill:#cd2127;stroke-width:0.353"
         id="path4677" />
      <path
         d="m 45.499717,31.349794 q -0.01451,0.003 -0.0205,-0.02603 -0.006,-0.02902 0.0085,-0.03202 0.154781,-0.03195 0.217505,-0.07012 0.06756,-0.03916 0.07776,-0.111872 0.0092,-0.07755 -0.02075,-0.222654 l -0.462335,-2.239484 q -0.02996,-0.145107 -0.06812,-0.207831 -0.03816,-0.06272 -0.11571,-0.07193 -0.07855,-0.01404 -0.228489,0.01691 -0.01451,0.003 -0.0205,-0.02603 -0.006,-0.02902 0.0085,-0.03202 l 2.050846,-0.423391 q 0.04837,-0.01 0.05736,0.03355 l 0.142483,0.641311 q 0.002,0.0097 -0.02603,0.0205 -0.02319,0.0098 -0.03102,-0.0037 -0.135307,-0.264563 -0.347069,-0.362051 -0.211762,-0.09749 -0.51165,-0.03558 l -0.145107,0.02996 q -0.145107,0.02996 -0.199842,0.106816 -0.05474,0.07686 -0.02777,0.207456 l 0.457343,2.2153 q 0.02896,0.14027 0.09614,0.197003 0.06719,0.05673 0.183271,0.03277 l 0.159618,-0.03295 q 0.377278,-0.07789 0.572658,-0.279601 0.195381,-0.201714 0.234889,-0.547755 -0.002,-0.0097 0.01735,-0.01367 0.01451,-0.003 0.02618,0.0047 0.01551,0.0018 0.01651,0.0067 0.02952,0.387264 0.09343,0.696826 0.008,0.0387 -0.0025,0.06104 -0.01151,0.01751 -0.05505,0.02649 z M 47.14408,29.88572 q -0.04094,-0.198313 -0.218689,-0.277608 -0.173909,-0.08513 -0.459286,-0.02621 l -0.652982,0.134806 -0.02796,-0.135433 0.657818,-0.135805 q 0.28054,-0.05792 0.410513,-0.185611 0.129972,-0.127693 0.09402,-0.301821 -0.003,-0.01451 0.02119,-0.0195 0.02902,-0.006 0.03202,0.0085 l 0.08503,0.43632 0.05277,0.231173 q 0.04362,0.162457 0.0636,0.259195 0.002,0.0097 -0.02702,0.01567 -0.02902,0.006 -0.03102,-0.0037 z"
         style="font-weight:bold;font-size:4.9389px;font-family:'Cormorant Garamond';text-align:end;text-anchor:end;fill:#cd2127;stroke-width:0.353"
         id="path4679" />
      <path
         d="m 48.397442,28.226754 q 0.01456,0.177203 0.114486,0.307748 0.104849,0.13014 0.246244,0.222589 0.141396,0.09245 0.379956,0.221513 0.259058,0.137292 0.416434,0.243294 0.157376,0.106002 0.2749,0.26979 0.117119,0.158865 0.135319,0.380369 0.02103,0.255961 -0.100211,0.4691 -0.121647,0.208217 -0.35846,0.341652 -0.232296,0.128109 -0.532557,0.15278 -0.216582,0.0178 -0.467551,-0.02105 -0.246451,-0.04417 -0.336197,-0.111131 -0.02623,-0.01767 -0.04221,-0.03122 -0.01146,-0.01888 -0.0147,-0.05826 l -0.07907,-0.781434 -4.04e-4,-0.0049 q -0.0016,-0.01969 0.02299,-0.02171 0.02421,-0.0069 0.03075,0.01234 0.17234,0.288128 0.296,0.466278 0.128582,0.177746 0.30767,0.306742 0.184009,0.128591 0.400591,0.110796 0.196893,-0.01618 0.316379,-0.130062 0.119083,-0.118807 0.09805,-0.374767 -0.0178,-0.216582 -0.129589,-0.370929 -0.10687,-0.154752 -0.253997,-0.256641 -0.147127,-0.101888 -0.401263,-0.239585 -0.248809,-0.133178 -0.390609,-0.230549 -0.136878,-0.09777 -0.242939,-0.242682 -0.106062,-0.144908 -0.123049,-0.351645 -0.02144,-0.260882 0.111674,-0.450219 0.137627,-0.194663 0.367023,-0.297756 0.228991,-0.108015 0.489873,-0.12945 0.172281,-0.01416 0.352315,0.0057 0.17963,0.01497 0.291561,0.05038 0.04592,0.01605 0.06271,0.03945 0.01638,0.01848 0.01922,0.05293 l 0.05945,0.72358 q 0.0012,0.01477 -0.02259,0.02663 -0.02421,0.0069 -0.03034,-0.0074 l -0.04706,-0.09029 q -0.148538,-0.299994 -0.333692,-0.502825 -0.180232,-0.203235 -0.475571,-0.178968 -0.196892,0.01618 -0.31557,0.139906 -0.113755,0.123324 -0.09596,0.339906 z"
         style="font-weight:bold;font-size:4.9389px;font-family:'Cormorant Garamond';text-align:end;text-anchor:end;fill:#cd2127;stroke-width:0.353"
         id="path4681" />
      <path
         d="m 51.313493,27.737211 q -0.586966,-0.02993 -0.882435,0.721533 -0.0057,0.01455 -0.03035,0.01329 -0.02441,-0.0062 -0.02366,-0.02099 0.02979,-0.196294 0.0703,-0.505784 0.04076,-0.314422 0.0488,-0.472262 0.0013,-0.02466 0.02592,-0.02341 0.0296,0.0015 0.02834,0.02617 -0.0055,0.108515 0.27562,0.122849 0.42344,0.03643 0.990677,0.06535 0.291017,0.01484 0.617064,0.02157 l 0.335661,0.01217 q 0.187435,0.0096 0.272545,-0.01083 0.09004,-0.02013 0.118477,-0.09286 0.0059,-0.01948 0.0306,-0.01822 0.0296,0.0015 0.02859,0.02124 -0.02234,0.147221 -0.05867,0.471759 -0.0314,0.324791 -0.04145,0.52209 -7.54e-4,0.0148 -0.02542,0.01354 -0.02466,-0.0013 -0.02884,-0.01631 -0.05462,-0.383574 -0.2473,-0.58132 -0.192424,-0.202677 -0.488374,-0.217766 -0.143042,-0.0073 -0.195636,0.05432 -0.04741,0.05693 -0.05621,0.229564 l -0.115932,2.273879 q -0.0078,0.152907 0.01828,0.223471 0.02607,0.07056 0.108669,0.0995 0.08259,0.02894 0.265097,0.03824 0.0148,7.54e-4 0.01329,0.03035 -0.0015,0.02959 -0.01631,0.02884 -0.17757,-0.0091 -0.280901,-0.01927 l -0.409146,-0.0258 -0.399783,-0.01544 q -0.103834,-3.49e-4 -0.286336,-0.0097 -0.0148,-7.54e-4 -0.01329,-0.03035 0.0015,-0.0296 0.01631,-0.02884 0.177569,0.0091 0.262679,-0.01133 0.09004,-0.02013 0.123158,-0.08768 0.0383,-0.07223 0.04584,-0.220201 l 0.116434,-2.283745 q 0.0086,-0.167705 -0.03282,-0.229158 -0.04138,-0.06145 -0.179485,-0.06849 z"
         style="font-weight:bold;font-size:4.9389px;font-family:'Cormorant Garamond';text-align:end;text-anchor:end;fill:#cd2127;stroke-width:0.353"
         id="path4683" />
      <path
         d="m 54.332799,28.419318 q -0.03232,0.174839 0.02996,0.326984 0.06714,0.153043 0.179412,0.279273 0.112274,0.126229 0.308744,0.313227 0.214101,0.200301 0.338253,0.343794 0.124151,0.143493 0.194717,0.332328 0.07146,0.183979 0.03106,0.402526 -0.04668,0.252544 -0.21948,0.426527 -0.171898,0.169126 -0.435378,0.235938 -0.257725,0.06285 -0.553979,0.0081 -0.213691,-0.0395 -0.445748,-0.142672 -0.226302,-0.107128 -0.295398,-0.19524 -0.02069,-0.02392 -0.03257,-0.04118 -0.0061,-0.02122 0.0011,-0.06008 l 0.128181,-0.774895 8.98e-4,-0.0049 q 0.0036,-0.01943 0.02787,-0.01494 0.02518,-3.67e-4 0.02645,0.01996 0.09093,0.323187 0.163662,0.52749 0.07759,0.205201 0.216674,0.376568 0.143945,0.172265 0.357636,0.211768 0.194265,0.03591 0.339391,-0.04273 0.146023,-0.0835 0.192709,-0.336047 0.0395,-0.213691 -0.028,-0.391915 -0.06265,-0.177326 -0.177984,-0.314167 -0.115336,-0.13684 -0.32458,-0.336244 -0.205286,-0.19365 -0.316662,-0.324736 -0.106521,-0.130188 -0.170965,-0.297801 -0.06444,-0.167613 -0.02674,-0.371591 0.04758,-0.257401 0.225603,-0.405305 0.183774,-0.151863 0.432154,-0.19133 0.249277,-0.04433 0.506678,0.0033 0.169981,0.03142 0.338535,0.09774 0.169451,0.06146 0.268216,0.124921 0.04012,0.02751 0.0502,0.05448 0.01098,0.02212 0.0047,0.05612 l -0.131976,0.713922 q -0.0027,0.01457 -0.02877,0.0198 -0.02518,3.67e-4 -0.02734,-0.0151 l -0.02179,-0.09946 q -0.06485,-0.328411 -0.190476,-0.572627 -0.120765,-0.243319 -0.412161,-0.297187 -0.194265,-0.03591 -0.341186,0.05245 -0.142065,0.08926 -0.181568,0.302948 z"
         style="font-weight:bold;font-size:4.9389px;font-family:'Cormorant Garamond';text-align:end;text-anchor:end;fill:#cd2127;stroke-width:0.353"
         id="path4685" />
    </g>
  </g>
</svg>
