<svg viewBox="0 0 832 590" xmlns="http://www.w3.org/2000/svg">
  <style>
    .background { fill: black }
    .outline { stroke: #d9d9d9 }
    .eyes { fill: #d9d9d9 }
    .nose { fill: #d9d9d9 }
    .circuit { stroke: #999999 }
  </style>

  <defs>
    <!-- Repeating circuit pattern -->
    <g id="circuit-unit" class="circuit" fill="none" stroke-width="0.13">
      <path d="M 7.25,0 A 0.25 0.25 0 0 0 6.75,0 A 0.25 0.25 0 0 0 7.25,0 H 11 V 2 H 10 V 1.25 A 0.25 0.25 0 0 0 10,0.75 A 0.25 0.25 0 0 0 10,1.25" />
      <path d="M 10.25,3 A 0.25 0.25 0 0 0 9.75,3 A 0.25 0.25 0 0 0 10.25,3 H 12 V 0 H 15 V -1 H 16 V 0.75 A 0.25 0.25 0 0 0 16,1.25 A 0.25 0.25 0 0 0 16,0.75" />
      <path d="M 1.75,13 A 0.25 0.25 0 0 0 2.25,13 A 0.25 0.25 0 0 0 1.75,13 H 0 V 9 L 3,6 V 3.25 A 0.25 0.25 0 0 0 3,2.75 A 0.25 0.25 0 0 0 3,3.25" />
      <path d="M 1.25,12 A 0.25 0.25 0 0 0 0.75,12 A 0.25 0.25 0 0 0 1.25,12 H 2.5 L 4,13.5 V 15 H 3.25 A 0.25 0.25 0 0 0 2.75,15 A 0.25 0.25 0 0 0 3.25,15" />
      <path d="M 1.25,11 A 0.25 0.25 0 0 0 0.75,11 A 0.25 0.25 0 0 0 1.25,11 H 3 L 5,13 V 16 H 3.25 A 0.25 0.25 0 0 0 2.75,16 A 0.25 0.25 0 0 0 3.25,16" />
      <path d="M 2.25,10 A 0.25 0.25 0 0 0 1.75,10 A 0.25 0.25 0 0 0 2.25,10 H 3.5 L 6,12.5 V 16 H 12.75 A 0.25 0.25 0 0 0 13.25,16 A 0.25 0.25 0 0 0 12.75,16" />
      <path d="M 3.25,9 A 0.25 0.25 0 0 0 2.75,9 A 0.25 0.25 0 0 0 3.25,9 H 6 V 6.25 A 0.25 0.25 0 0 0 6,5.75 A 0.25 0.25 0 0 0 6,6.25" />
      <path d="M 4.25,8 A 0.25 0.25 0 0 0 3.75,8 A 0.25 0.25 0 0 0 4.25,8 H 5 V 4 H 7 V 2.25 A 0.25 0.25 0 0 0 7,1.75 A 0.25 0.25 0 0 0 7,2.25" />
      <path d="M 6.25,5 A 0.25 0.25 0 0 0 5.75,5 A 0.25 0.25 0 0 0 6.25,5 H 8 V 2.25 A 0.25 0.25 0 0 0 8,1.75 A 0.25 0.25 0 0 0 8,2.25" />
      <path d="M 7.25,1 A 0.25 0.25 0 0 0 6.75,1 A 0.25 0.25 0 0 0 7.25,1 H 9 V 3.75 A 0.25 0.25 0 0 0 9,4.25 A 0.25 0.25 0 0 0 9,3.75" />
      <path d="M 5.25,10 A 0.25 0.25 0 0 0 4.75,10 A 0.25 0.25 0 0 0 5.25,10 H 7 V 7 H 7.75 A 0.25 0.25 0 0 0 8.25,7 A 0.25 0.25 0 0 0 7.75,7" />
      <path d="M 8,8.25 A 0.25 0.25 0 0 0 8,7.75 A 0.25 0.25 0 0 0 8,8.25 V 13 H 9 V 13.75 A 0.25 0.25 0 0 0 9,14.25 A 0.25 0.25 0 0 0 9,13.75" />
      <path d="M 7.25,6 A 0.25 0.25 0 0 0 6.75,6 A 0.25 0.25 0 0 0 7.25,6 H 8.5 L 10.5,4 H 13 V 1.25 A 0.25 0.25 0 0 0 13,0.75 A 0.25 0.25 0 0 0 13,1.25" />
      <path d="M 6.25,11 A 0.25 0.25 0 0 0 5.75,11 A 0.25 0.25 0 0 0 6.25,11 H 7 V 14 H 7.75 A 0.25 0.25 0 0 0 8.25,14 A 0.25 0.25 0 0 0 7.75,14" />
      <path d="M 7.25,15 A 0.25 0.25 0 0 0 6.75,15 A 0.25 0.25 0 0 0 7.25,15 H 11 V 10.25 A 0.25 0.25 0 0 0 11,9.75 A 0.25 0.25 0 0 0 11,10.25" />
      <path d="M 12,10.25 A 0.25 0.25 0 0 0 12,9.75 A 0.25 0.25 0 0 0 12,10.25 V 13.75 A 0.25 0.25 0 0 0 12,14.25 A 0.25 0.25 0 0 0 12,13.75" />
      <path d="M 9,11.75 A 0.25 0.25 0 0 0 9,12.25 A 0.25 0.25 0 0 0 9,11.75 V 7 L 11,5 H 14 V 1.25 A 0.25 0.25 0 0 0 14,0.75 A 0.25 0.25 0 0 0 14,1.25" />
      <path d="M 10,13.75 A 0.25 0.25 0 0 0 10,14.25 A 0.25 0.25 0 0 0 10,13.75 V 7.5 L 11.5,6 H 18.75 A 0.25 0.25 0 0 0 19.25,6 A 0.25 0.25 0 0 0 18.75,6" />
      <path d="M 12.25,7 A 0.25 0.25 0 0 0 11.75,7 A 0.25 0.25 0 0 0 12.25,7 H 17.75 A 0.25 0.25 0 0 0 18.25,7 A 0.25 0.25 0 0 0 17.75,7" />
      <path d="M 11.25,8 A 0.25 0.25 0 0 0 10.75,8 A 0.25 0.25 0 0 0 11.25,8 H 16.75 A 0.25 0.25 0 0 0 17.25,8 A 0.25 0.25 0 0 0 16.75,8" />
      <path d="M 11.25,9 A 0.25 0.25 0 0 0 10.75,9 A 0.25 0.25 0 0 0 11.25,9 H 14 V 10 H 13 V 15 H 12.25 A 0.25 0.25 0 0 0 11.75,15 A 0.25 0.25 0 0 0 12.25,15" />
      <path d="M 16.25,9 A 0.25 0.25 0 0 0 15.75,9 A 0.25 0.25 0 0 0 16.25,9 H 17 V 11.75 A 0.25 0.25 0 0 0 17,12.25 A 0.25 0.25 0 0 0 17,11.75" />
      <path d="M -2.75,14 A 0.25 0.25 0 0 0 -3.25,14 A 0.25 0.25 0 0 0 -2.75,14 H 2.75 A 0.25 0.25 0 0 0 3.25,14 A 0.25 0.25 0 0 0 2.75,14" />
      <path d="M -2.75,13 A 0.25 0.25 0 0 0 -3.25,13 A 0.25 0.25 0 0 0 -2.75,13 H -1 V 8.5 L 2,5.5 V 4.25 A 0.25 0.25 0 0 0 2,3.75 A 0.25 0.25 0 0 0 2,4.25" />
      <path d="M -4,1.25 A 0.25 0.25 0 0 0 -4,0.75 A 0.25 0.25 0 0 0 -4,1.25 V 5 H 0.75 A 0.25 0.25 0 0 0 1.25,5 A 0.25 0.25 0 0 0 0.75,5" />
      <path d="M -1.75,3 A 0.25 0.25 0 0 0 -2.25,3 A 0.25 0.25 0 0 0 -1.75,3 H -0.5 L 0.5,2 H 0.75 A 0.25 0.25 0 0 0 1.25,2 A 0.25 0.25 0 0 0 0.75,2" />
      <path d="M -2.75,-4 A 0.25 0.25 0 0 0 -3.25,-4 A 0.25 0.25 0 0 0 -2.75,-4 H 2 V 2.5 L 0.5,4 H -3 V 2.25 A 0.25 0.25 0 0 0 -3,1.75 A 0.25 0.25 0 0 0 -3,2.25" />
      <path d="M -4,-9.75 A 0.25 0.25 0 0 0 -4,-10.25 A 0.25 0.25 0 0 0 -4,-9.75 V -9 H -3 V -7 H -4 V -3 H -1 V 1 H 1 V -3 H 0 V -0.25 A 0.25 0.25 0 0 0 0,0.25 A 0.25 0.25 0 0 0 0,-0.25" />
      <path d="M 14.75,-8 A 0.25 0.25 0 0 0 15.25,-8 A 0.25 0.25 0 0 0 14.75,-8 H 14 V -2 H 17 V 2 H 17.75 A 0.25 0.25 0 0 0 18.25,2 A 0.25 0.25 0 0 0 17.75,2" />
      <path d="M 1,9.75 A 0.25 0.25 0 0 0 1,10.25 A 0.25 0.25 0 0 0 1,9.75 V 9.5 L 4,6.5 V 3 H 6 V -1 H 13.75 A 0.25 0.25 0 0 0 14.25,-1 A 0.25 0.25 0 0 0 13.75,-1" />
      <path d="M 3.25,2 A 0.25 0.25 0 0 0 2.75,2 A 0.25 0.25 0 0 0 3.25,2 H 5 V -2 H 12.75 A 0.25 0.25 0 0 0 13.25,-2 A 0.25 0.25 0 0 0 12.75,-2" />
      <path d="M 3.25,1 A 0.25 0.25 0 0 0 2.75,1 A 0.25 0.25 0 0 0 3.25,1 H 4 V 0 H 3 V -2 H 4 V -1.25 A 0.25 0.25 0 0 0 4,-0.75 A 0.25 0.25 0 0 0 4,-1.25" />
    </g>

    <!-- Circuit pattern tiled four times -->
    <g id="circuit">
      <use href="#circuit-unit" x="0" y="0"/>
      <use href="#circuit-unit" x="0" y="19"/>
      <use href="#circuit-unit" x="19" y="0"/>
      <use href="#circuit-unit" x="19" y="19"/>
    </g>

    <!-- Mask for left circuit facial markings -->
    <mask id="left-mask">
      <path fill="white" stroke="black" stroke-width="5" d="
        M 317,31
        H 281
        C 276,31 271,30 266,28
        L 196,5
        C 172,-3 145,10 136,33
        L 5,365
        C 1,377 4,391 13,399
        L 25,410
        C 32,416 32,427 25,434
        C 17,442 20,457 31,461
        L 293,547.765
        L 375,298
        L 317,31
      "/>
    </mask>
  </defs>

  <g class="outline" fill="none" stroke-width="5">
    <!-- Outline -->
    <path class="background" d="
      M 416,31
      H 281
      C 276,31 271,30 266,28
      L 196,5
      C 172,-3 145,10 136,33
      L 5,365
      C 1,377 4,391 13,399
      L 25,410
      C 32,416 32,427 25,434
      C 17,442 20,457 31,461
      L 401,584
      C 411,588 421,588 431,584
      L 800,461
      C 812,457 815,442 806,434
      C 799,427 799,416 806,410
      L 818,399
      C 827,391 831,377 826,365
      L 695,33
      C 686,10 660,-3 636,5
      L 565,28
      C 560,30 555,31 550,31
      H 416
    "/>

    <!-- Eye markings -->
    <path id="left-eye-marking" d="M 316,31 L 374,298 L 292,547.765" />
    <use href="#left-eye-marking" transform="translate(832, 0) scale(-1, 1)" />
  </g>

  <!-- Circuit facial markings-->
  <g id="left-markings" mask="url(#left-mask)">
    <use
      href="#circuit"
      transform="translate(-166, -408) scale(31.5) rotate(19)"
    />
  </g>
  <use id="right-markings" x="0" y="0" href="#left-markings" transform="translate(832, 0) scale(-1, 1)"/>

  <g stroke="none">
    <!-- Eyes -->
    <circle class="eyes" cx="256" cy="298" r="45" />
    <circle class="eyes" cx="576" cy="298" r="45" />

    <!-- Nose -->
    <ellipse class="nose" cx="416" cy="407" rx="42" ry="35" />
  </g>
</svg>
